<svg width="1em" height="1em" font-size="24" fill="currentColor" style="user-select:none;display:inline-block" viewBox="0 0 24 24" xmlns="http://www.w3.org/2000/svg" data-testid="IxigoMoneyIcon" class="shrink-0"><path d="M10.963 3.4302c.1797-.3779.6279-.5368 1.0011-.355l6.42 3.1283c1.1913.5804 1.4244 2.1102.7382 3.1022-1.348 1.9489-3.1247 5.4781-3.5732 9.9504-.0418.4172-.4098.7211-.8219.6787s-.7123-.4149-.6704-.8321c.4795-4.7818 2.3742-8.5535 3.8368-10.668.2289-.331.0863-.743-.16-.863l-6.42-3.1281c-.3733-.1819-.5302-.6356-.3506-1.0135m.1006 9.9051c-.1873 1.2146-1.0012 2.0946-1.8178 1.9655s-1.3269-1.2183-1.1396-2.4328 1.0011-2.0945 1.8178-1.9655 1.3268 1.2183 1.1396 2.4328"></path><path fill-rule="evenodd" d="M6.4717 6.1153c.3353-1.109 1.5447-1.5354 2.4978-1.0832l5.3146 2.5211c1.0818.5132 1.3727 1.8455.8337 2.8064-1.5861 2.8273-2.2672 6.4272-2.479 8.8209-.1048 1.1838-1.2426 2.0852-2.4417 1.748l-2.632-.7401c-.6071-.1707-1.1077-.6448-1.2854-1.2851-1.4124-5.0891-.6313-10.0652.192-12.788m1.5838.279a.25.25 0 0 0-.1495.1654c-.7678 2.5396-1.494 7.2063-.1822 11.9329.0286.1031.1149.1967.2427.2327l2.632.7401c.2292.0644.5187-.1096.5462-.4204.2207-2.4927.9315-6.3385 2.6688-9.4353.1588-.2832.032-.5876-.1659-.6814L8.3331 6.407c-.1007-.0478-.2012-.0444-.2776-.0128" clip-rule="evenodd"></path></svg>